<?xml version="1.0"?>
<svg xmlns="http://www.w3.org/2000/svg" height="512px" viewBox="0 0 496.002 496" width="512px" class=""><g><path d="m248 184c0-13.230469-10.769531-24-24-24-1.640625 0-3.230469.167969-4.777344.480469l-20.4375-34.0625c5.6875-5.777344 9.214844-13.6875 9.214844-22.417969 0-17.648438-14.351562-32-32-32-3.144531 0-6.128906.601562-9 1.449219l-20.558594-34.273438c3.414063-4.144531 5.558594-9.390625 5.558594-15.175781 0-13.230469-10.769531-24-24-24s-24 10.769531-24 24c0 5.785156 2.144531 11.03125 5.566406 15.183594l-24.78125 41.304687c-1.554687-.320312-3.144531-.488281-4.785156-.488281-13.230469 0-24 10.769531-24 24 0 5.785156 2.144531 11.03125 5.566406 15.175781l-20.558594 34.273438c-2.878906-.847657-5.863281-1.449219-9.007812-1.449219-17.648438 0-32 14.351562-32 32s14.351562 32 32 32c14.871094 0 27.289062-10.230469 30.863281-24h42.609375c3.3125 9.289062 12.113282 16 22.527344 16s19.214844-6.710938 22.527344-16h50.953125c3.3125 9.289062 12.113281 16 22.527343 16 13.222657 0 23.992188-10.765625 23.992188-24zm-120-24c-1.640625 0-3.230469.167969-4.777344.480469l-24.78125-41.304688c1.75-2.125 3.144532-4.527343 4.085938-7.175781h42.609375c1.429687 5.511719 4.207031 10.480469 8.078125 14.425781l-20.4375 34.0625c-1.546875-.320312-3.136719-.488281-4.777344-.488281zm-73.214844 1.585938 20.4375-34.066407c1.546875.3125 3.136719.480469 4.777344.480469s3.230469-.167969 4.777344-.480469l24.78125 41.304688c-1.75 2.128906-3.144532 4.527343-4.085938 7.175781h-42.609375c-1.429687-5.511719-4.199219-10.480469-8.078125-14.414062zm73.214844-113.585938c1.640625 0 3.230469-.167969 4.785156-.480469l20.4375 34.066407c-3.878906 3.933593-6.648437 8.910156-8.078125 14.414062h-42.609375c-.941406-2.648438-2.335937-5.046875-4.085937-7.175781l24.78125-41.304688c1.539062.3125 3.136719.480469 4.769531.480469zm18.433594 120.824219 20.566406-34.261719c2.871094.839844 5.855469 1.4375 9 1.4375s6.128906-.597656 9-1.445312l20.558594 34.269531c-1.75 2.128906-3.144532 4.527343-4.085938 7.175781h-50.953125c-.933593-2.648438-2.328125-5.046875-4.085937-7.175781zm45.566406-64.824219c0 8.824219-7.175781 16-16 16s-16-7.175781-16-16 7.175781-16 16-16 16 7.175781 16 16zm-64-88c4.414062 0 8 3.585938 8 8 0 4.417969-3.585938 8-8 8s-8-3.582031-8-8c0-4.414062 3.585938-8 8-8zm-48 80c4.414062 0 8 3.585938 8 8 0 4.417969-3.585938 8-8 8s-8-3.582031-8-8c0-4.414062 3.585938-8 8-8zm-48 104c-8.824219 0-16-7.175781-16-16s7.175781-16 16-16 16 7.175781 16 16-7.175781 16-16 16zm96-8c-4.414062 0-8-3.582031-8-8 0-4.414062 3.585938-8 8-8s8 3.585938 8 8c0 4.417969-3.585938 8-8 8zm96 0c-4.414062 0-8-3.582031-8-8 0-4.414062 3.585938-8 8-8s8 3.585938 8 8c0 4.417969-3.585938 8-8 8zm0 0" data-original="#000000" class="active-path" data-old_color="#D47676" fill="#597884"/><path d="m112 272c-61.761719 0-112 50.242188-112 112 0 61.761719 50.238281 112 112 112s112-50.238281 112-112c0-61.757812-50.238281-112-112-112zm0 208c-52.9375 0-96-43.0625-96-96 0-52.933594 43.0625-96 96-96s96 43.066406 96 96c0 52.9375-43.0625 96-96 96zm0 0" data-original="#000000" class="active-path" data-old_color="#D47676" fill="#597884"/><path d="m64 320c-13.230469 0-24 10.769531-24 24 0 1.90625.222656 3.792969.664062 5.609375-5.375 4.472656-8.664062 11.167969-8.664062 18.390625 0 13.234375 10.769531 24 24 24 6.871094 0 13.359375-3 17.863281-8.070312 12.359375-.953126 22.136719-11.320313 22.136719-23.929688 0-6.871094-3-13.359375-8.070312-17.863281-.953126-12.359375-11.320313-22.136719-23.929688-22.136719zm8.039062 48-1.070312-.144531c-3.304688-.445313-6.449219 1.160156-8.039062 4.007812-1.457032 2.59375-4.050782 4.136719-6.929688 4.136719-4.414062 0-8-3.582031-8-8 0-3.351562 2.167969-6.367188 5.390625-7.503906 2.34375-.824219 4.167969-2.679688 4.945313-5.039063.785156-2.359375.425781-4.945312-.976563-7-.886719-1.304687-1.359375-2.847656-1.359375-4.457031 0-4.414062 3.585938-8 8-8s8 3.585938 7.910156 8.640625c0 .007813-.054687.375-.054687.390625-.441407 3.25 1.152343 6.441406 4.007812 8.042969 2.59375 1.453125 4.136719 4.046875 4.136719 6.925781 0 4.417969-3.585938 8-7.960938 8zm0 0" data-original="#000000" class="active-path" data-old_color="#D47676" fill="#597884"/><path d="m181.65625 381.65625-11.3125-11.3125-16.0625 16.066406c-.746094-.351562-1.503906-.65625-2.28125-.929687v-17.480469h-16v17.472656c-.785156.28125-1.542969.578125-2.28125.929688l-16.0625-16.066406-11.3125 11.3125 16.0625 16.066406c-.351562.742187-.652344 1.503906-.925781 2.277344h-17.480469v16h17.472656c.28125.785156.574219 1.542968.925782 2.28125l-16.0625 16.0625 11.3125 11.3125 16.0625-16.0625c.746093.351562 1.503906.648437 2.28125.925781v17.488281h16v-17.472656c.785156-.277344 1.542968-.574219 2.28125-.925782l16.0625 16.0625 11.3125-11.3125-16.0625-16.0625c.351562-.742187.652343-1.503906.925781-2.28125h17.488281v-16h-17.472656c-.28125-.78125-.574219-1.542968-.925782-2.277343zm-29.65625 26.34375c0 4.417969-3.585938 8-8 8s-8-3.582031-8-8c0-4.414062 3.585938-8 8-8s8 3.585938 8 8zm0 0" data-original="#000000" class="active-path" data-old_color="#D47676" fill="#597884"/><path d="m136 352c17.945312 0 32-10.535156 32-24s-14.054688-24-32-24-32 10.535156-32 24 14.054688 24 32 24zm0-32c9.769531 0 16 4.738281 16 8 0 3.265625-6.230469 8-16 8s-16-4.734375-16-8c0-3.261719 6.230469-8 16-8zm0 0" data-original="#000000" class="active-path" data-old_color="#D47676" fill="#597884"/><path d="m56 408h16v16h-16zm0 0" data-original="#000000" class="active-path" data-old_color="#D47676" fill="#597884"/><path d="m72 440h16v16h-16zm0 0" data-original="#000000" class="active-path" data-old_color="#D47676" fill="#597884"/><path d="m410.679688 184.632812 34.976562-34.976562c3.128906-3.128906 3.128906-8.183594 0-11.3125l-6.34375-6.34375 12.6875-12.6875 6.34375 6.34375c1.558594 1.5625 3.609375 2.34375 5.65625 2.34375s4.097656-.78125 5.65625-2.34375l24-24c3.128906-3.128906 3.128906-8.183594 0-11.3125l-56-56c-3.128906-3.125-8.183594-3.125-11.3125 0l-24 24c-3.128906 3.128906-3.128906 8.183594 0 11.3125l6.34375 6.34375-12.6875 12.6875-6.34375-6.34375c-3.128906-3.125-8.183594-3.125-11.3125 0l-128 128c-3.128906 3.128906-3.128906 8.183594 0 11.3125l6.34375 6.34375-14.34375 14.34375c-3.128906 3.128906-3.128906 8.183594 0 11.3125l24 24c1.558594 1.5625 3.609375 2.34375 5.65625 2.34375s4.097656-.78125 5.65625-2.34375l14.34375-14.34375 30.34375 30.34375c1.558594 1.5625 3.609375 2.34375 5.65625 2.34375s4.097656-.78125 5.65625-2.34375l24-24c3.128906-3.128906 3.128906-8.183594 0-11.3125l-10.34375-10.34375 12.535156-12.535156c4.761719 2.816406 10.230469 4.535156 16.152344 4.535156 7.910156 0 15.0625-2.992188 20.65625-7.765625 28.703125 2.382813 51.34375 26.460937 51.34375 55.765625v40c0 30.871094-25.128906 56-56 56h-88v-16h32v-16h-96v16h16v16h-8c-4.425781 0-8 3.578125-8 8v32c0 4.425781 3.574219 8 8 8h56v16h-40c-4.425781 0-8 3.578125-8 8v32c0 4.425781 3.574219 8 8 8h144c4.425781 0 8-3.574219 8-8v-32c0-4.421875-3.574219-8-8-8h-40v-16h32c52.9375 0 96-43.0625 96-96v-56c0-49.320312-37.398438-90.03125-85.320312-95.367188zm21.320312-133.320312 44.6875 44.6875-12.6875 12.6875-44.6875-44.6875zm-12 36 20.6875 20.6875-12.6875 12.6875-20.6875-20.6875zm-36 12 44.6875 44.6875-12.6875 12.6875-44.6875-44.6875zm-24 24 44.6875 44.6875-12.535156 12.535156c-4.761719-2.8125-10.230469-4.535156-16.152344-4.535156-17.648438 0-32 14.351562-32 32 0 5.921875 1.71875 11.394531 4.535156 16.152344l-12.535156 12.535156-44.6875-44.6875zm-88 137.375-12.6875-12.6875 8.6875-8.6875 12.6875 12.6875zm56 16-60.6875-60.6875 12.6875-12.6875 60.6875 60.6875zm48-52.6875c-8.824219 0-16-7.175781-16-16s7.175781-16 16-16 16 7.175781 16 16-7.175781 16-16 16zm-104 144h16v16h-16zm128 112h-128v-16h128zm-48-32h-32v-16h32zm128-112c0 44.113281-35.886719 80-80 80h-144v-16h136c39.703125 0 72-32.296875 72-72v-40c0-34.765625-24.769531-63.855469-57.585938-70.542969.9375-3.007812 1.585938-6.144531 1.585938-9.457031 0-2.648438-.414062-5.183594-1.023438-7.648438 40.847657 3.554688 73.023438 37.898438 73.023438 79.648438zm0 0" data-original="#000000" class="active-path" data-old_color="#D47676" fill="#597884"/></g> </svg>
