<?xml version="1.0"?>
<svg xmlns="http://www.w3.org/2000/svg" xmlns:xlink="http://www.w3.org/1999/xlink" version="1.1" id="Capa_1" x="0px" y="0px" viewBox="0 0 480.154 480.154" style="enable-background:new 0 0 480.154 480.154;" xml:space="preserve" width="512px" height="512px" class=""><g><g>
	<g>
		<path d="M112.001,240.077c-17.673,0-32,14.327-32,32c0,17.673,14.327,32,32,32s32-14.327,32-32    C144.001,254.404,129.674,240.077,112.001,240.077z M112.001,288.077c-8.837,0-16-7.163-16-16s7.163-16,16-16s16,7.163,16,16    S120.838,288.077,112.001,288.077z" data-original="#000000" class="active-path" data-old_color="#D49797" fill="#597884"/>
	</g>
</g><g>
	<g>
		<path d="M336.001,376.077v88h-86.576c2.413-3.188,4.328-6.725,5.68-10.488l24.408-66.76l-15.024-5.504l-24.432,66.832    c-3.433,9.537-12.472,15.902-22.608,15.92H104.001c-22.08-0.026-39.974-17.92-40-40v-24h32v-16h-32v-24c0-4.418-3.582-8-8-8    H19.369c11.84-33.104,46.808-130.944,49.944-141.784c8.975-30.956,28.636-57.726,55.488-75.552l-8.864-13.328    c-30.003,19.932-51.97,49.853-62,84.448c-2.84,9.848-36.216,103.416-53.464,151.512c-1.493,4.158,0.667,8.74,4.825,10.233    c0.867,0.311,1.781,0.471,2.703,0.471h40v56c0.04,30.911,25.089,55.96,56,56h240c4.418,0,8-3.582,8-8v-96H336.001z" data-original="#000000" class="active-path" data-old_color="#D49797" fill="#597884"/>
	</g>
</g><g>
	<g>
		<path d="M320.001,128.077c-26.51,0-48,21.49-48,48c0,26.51,21.49,48,48,48c26.51,0,48-21.49,48-48    C367.975,149.578,346.5,128.104,320.001,128.077z M320.001,208.077c-17.673,0-32-14.327-32-32s14.327-32,32-32    c17.673,0,32,14.327,32,32S337.674,208.077,320.001,208.077z" data-original="#000000" class="active-path" data-old_color="#D49797" fill="#597884"/>
	</g>
</g><g>
	<g>
		<path d="M477.849,226.709c-6.137-18.886-16.382-36.178-30-50.632c13.612-14.455,23.852-31.747,29.984-50.632    c3.997-12.255,2.759-25.617-3.424-36.928c-2.781-4.621-6.469-8.632-10.84-11.792c0.266-1.536,0.411-3.09,0.432-4.648    c0.041-17.624-14.214-31.945-31.839-31.985c-14.998-0.034-27.997,10.38-31.233,25.025c-5.696,0.533-11.563,1.368-17.6,2.504    c-14.528-41.296-37.24-67.544-63.328-67.544s-48.8,26.232-63.32,67.488c-43.456-8-77.904-1.432-91.088,20.952    c-3.47,6.068-5.329,12.923-5.4,19.912c-15.332,8.666-20.735,28.12-12.069,43.451c5.678,10.045,16.339,16.239,27.877,16.197    c2.921-0.017,5.825-0.451,8.624-1.288c2.4,3.096,4.888,6.176,7.56,9.248c-13.625,14.467-23.875,31.772-30.016,50.672    c-3.997,12.255-2.759,25.617,3.424,36.928c9.6,16.344,30.544,24.288,58.056,24.288c11.088-0.122,22.143-1.236,33.032-3.328    c14.52,41.256,37.248,67.48,63.32,67.48c3.188-0.068,6.355-0.541,9.424-1.408c12.278,12.656,32.492,12.962,45.148,0.684    c12.656-12.278,12.962-32.492,0.684-45.148c-0.221-0.227-0.444-0.451-0.672-0.672c3.345-6.796,6.283-13.784,8.8-20.928    c10.873,2.09,21.912,3.201,32.984,3.32c27.504,0,48.44-7.944,58.056-24.288C480.608,252.326,481.847,238.964,477.849,226.709z     M416.001,71.805c0.148-8.73,7.269-15.729,16-15.728c8.837,0,16,7.163,16,16c-0.022,1.874-0.377,3.73-1.048,5.48    c-2.947,8.293-12.059,12.627-20.352,9.681c-6.325-2.247-10.563-8.217-10.6-14.929C416.001,72.149,416.001,71.989,416.001,71.805z     M379.625,118.757l-0.024-0.024c-6.216-4-12.592-7.896-19.2-11.624c-6.8-3.848-13.6-7.352-20.344-10.696    c10.645-4.029,21.514-7.44,32.552-10.216C375.586,96.903,377.929,107.775,379.625,118.757z M320.001,16.077    c17.344,0,35.368,20.256,47.856,54.936c-16.321,4.188-32.297,9.626-47.784,16.264c-15.517-6.678-31.534-12.13-47.904-16.304    C284.657,36.309,302.673,16.077,320.001,16.077z M267.409,86.029c11.092,2.799,22.009,6.247,32.696,10.328    c-6.88,3.392-13.744,6.928-20.544,10.776c-6.592,3.728-12.968,7.632-19.2,11.624C262.062,107.718,264.415,96.79,267.409,86.029z     M191.409,140.333c-0.789,2.748-2.3,5.234-4.376,7.2c-1.062,1.007-2.254,1.868-3.544,2.56c-7.729,4.173-17.377,1.29-21.55-6.439    s-1.29-17.377,6.439-21.55c0.792-0.428,1.619-0.787,2.471-1.075c1.652-0.603,3.394-0.925,5.152-0.952c8.837,0,16,7.163,16,16    C191.999,137.516,191.8,138.948,191.409,140.333z M179.377,255.517c-3.922-7.639-4.554-16.548-1.752-24.664    c5.293-16.024,14-30.708,25.52-43.04c12.241,12.216,25.458,23.413,39.52,33.48c1.832,16.278,4.932,32.388,9.272,48.184    C215.129,275.949,188.185,270.477,179.377,255.517z M240.801,199.789c-9.4-7.351-18.342-15.27-26.776-23.712    c8.44-8.445,17.382-16.374,26.776-23.744c-0.48,7.744-0.8,15.656-0.8,23.744S240.321,192.029,240.801,199.789z M242.697,130.837    c-14.035,10.068-27.242,21.243-39.496,33.416c-1.6-1.84-3.2-3.688-4.688-5.528c0.16-0.16,0.28-0.368,0.44-0.528    c1.112-1.148,2.136-2.378,3.064-3.68c0.272-0.384,0.552-0.8,0.8-1.168c1.018-1.534,1.901-3.153,2.64-4.84    c0.064-0.16,0.104-0.328,0.168-0.488c0.635-1.581,1.14-3.21,1.512-4.872c0.112-0.472,0.216-0.936,0.296-1.416    c0.362-1.864,0.552-3.757,0.568-5.656c-0.017-1.947-0.209-3.888-0.576-5.8c-0.064-0.312-0.104-0.624-0.176-0.928    c-0.387-1.855-0.944-3.671-1.664-5.424l-0.16-0.368c-4.814-11.676-16.139-19.345-28.768-19.48c0.486-2.621,1.417-5.14,2.752-7.448    c8.8-14.96,35.752-20.432,72.56-13.952C247.628,98.464,244.528,114.567,242.697,130.837z M260.369,233.373    c6.232,4,12.592,7.912,19.2,11.648c6.848,3.88,13.68,7.44,20.48,10.8c-10.666,4.073-21.562,7.516-32.632,10.312    C264.423,255.362,262.069,244.423,260.369,233.373z M320.001,328.077c0.009,1.488,0.118,2.974,0.328,4.448    c0.064,0.456,0.176,0.904,0.264,1.368c0.128,0.72,0.224,1.448,0.408,2.152c-0.336,0-0.672,0-1,0    c-17.328,0-35.328-20.216-47.816-54.824c16.338-4.165,32.325-9.6,47.816-16.256c15.408,6.626,31.306,12.047,47.552,16.216    c-2.056,5.672-4.216,11.2-6.624,16.2h-0.112c-0.985-0.271-1.984-0.49-2.992-0.656c-0.456-0.088-0.904-0.232-1.36-0.296    c-1.478-0.225-2.969-0.343-4.464-0.352C334.328,296.077,320.001,310.404,320.001,328.077z M352.001,344.077    c-8.837,0-16-7.163-16-16s7.163-16,16-16c8.797,0.095,15.905,7.203,16,16C368.001,336.914,360.838,344.077,352.001,344.077z     M372.393,266.069c-10.987-2.786-21.802-6.208-32.392-10.248c6.8-3.36,13.6-6.928,20.472-10.8    c6.544-3.704,12.88-7.576,19.056-11.544C377.792,244.472,375.409,255.355,372.393,266.069z M382.241,212.429    c-9.384,6.528-19.32,12.8-29.68,18.672c-11.08,6.272-21.952,11.736-32.552,16.504c-10.608-4.8-21.488-10.232-32.568-16.504    c-10.4-5.864-20.296-12.184-29.744-18.768c-1.08-11.456-1.696-23.576-1.696-36.256s0.616-24.8,1.696-36.312    c9.408-6.544,19.36-12.8,29.744-18.712c10.816-6.12,21.768-11.584,32.688-16.448c10.56,4.76,21.392,10.2,32.432,16.448    c10.4,5.88,20.336,12.168,29.744,18.712c1.08,11.512,1.696,23.616,1.696,36.312C384.001,188.485,383.377,200.645,382.241,212.429z     M401.313,81.013c0.248,0.856,0.632,1.648,0.952,2.472c0.224,0.592,0.416,1.2,0.68,1.768c0.721,1.59,1.572,3.118,2.544,4.568    c0.08,0.12,0.136,0.256,0.224,0.376c1.072,1.535,2.276,2.972,3.6,4.296c0.432,0.432,0.912,0.8,1.36,1.216    c0.943,0.856,1.933,1.658,2.968,2.4c0.576,0.408,1.176,0.8,1.776,1.144c1.033,0.637,2.101,1.214,3.2,1.728    c0.648,0.304,1.28,0.592,1.952,0.856c1.221,0.462,2.468,0.85,3.736,1.16c0.608,0.152,1.192,0.344,1.816,0.464    c1.937,0.388,3.905,0.594,5.88,0.616c2.153-0.026,4.298-0.276,6.4-0.744c0.536-0.112,1.064-0.24,1.6-0.384    c1.9-0.487,3.75-1.148,5.528-1.976c0.144-0.064,0.304-0.112,0.456-0.184c1.861-0.942,3.626-2.062,5.272-3.344    c0.44-0.336,0.848-0.688,1.272-1.04c1.416-1.195,2.728-2.509,3.92-3.928c0.144-0.176,0.336-0.304,0.472-0.48    c1.429,1.375,2.666,2.936,3.68,4.64c3.922,7.639,4.554,16.548,1.752,24.664c-5.287,16.01-13.982,30.683-25.488,43.008    c-12.271-12.191-25.497-23.381-39.552-33.464c-1.824-16.201-4.905-32.237-9.216-47.96C392.62,82.08,397.025,81.456,401.313,81.013    z M399.201,152.333c9.402,7.372,18.354,15.301,26.808,23.744c-8.448,8.449-17.401,16.378-26.808,23.744    c0.48-7.816,0.8-15.744,0.8-23.744S399.681,160.077,399.201,152.333z M460.641,255.517c-8.8,14.944-35.736,20.416-72.536,13.952    c4.3-15.782,7.376-31.873,9.2-48.128c14.07-10.094,27.312-21.295,39.6-33.496c11.508,12.324,20.207,26.997,25.496,43.008    c2.795,8.12,2.154,17.029-1.776,24.664H460.641z" data-original="#000000" class="active-path" data-old_color="#D49797" fill="#597884"/>
	</g>
</g></g> </svg>
